<svg width="41" height="40" viewBox="0 0 41 40" fill="none" xmlns="http://www.w3.org/2000/svg">
<rect x="1.00107" y="0.0969543" width="40.0037" height="39.0112" rx="19.5056" transform="rotate(0.887143 1.00107 0.0969543)" fill="white" fill-opacity="0.07"/>
<g clip-path="url(#clip0_1_22)">
<path fill-rule="evenodd" clip-rule="evenodd" d="M28.0124 17.0336C27.992 18.3941 28.3395 19.2013 29.1169 20.1373C29.7063 20.8271 29.8848 21.7038 29.8706 22.6518C29.8564 23.5988 29.5318 24.4931 28.8975 25.2136C28.0683 26.0763 26.9091 26.6176 25.7331 26.697C24.0288 26.8166 22.3239 26.9132 20.5982 26.8873C18.8714 26.8613 17.1704 26.7627 15.4713 26.5429C14.2971 26.4282 13.1547 25.8523 12.3529 24.9651C11.7405 24.2259 11.4418 23.3222 11.456 22.3753C11.4703 21.4272 11.6761 20.5562 12.2849 19.8845C13.1148 18.9727 13.4627 18.1759 13.4832 16.8154L13.4901 16.3539C13.5174 14.532 13.9896 13.3475 14.9427 12.1953C16.3592 10.5154 18.604 9.52881 20.8099 9.56195L20.9068 9.5634C23.1601 9.59724 25.4457 10.701 26.7863 12.4954C27.6562 13.651 28.046 14.7982 28.0194 16.5722L28.0124 17.0336ZM17.3942 29.0788C17.4024 28.5333 17.9067 28.291 18.3712 28.191C18.9145 28.0846 22.2141 28.1341 22.7539 28.2568C23.2152 28.3707 23.7121 28.628 23.7039 29.1735C23.6692 29.6924 23.3576 30.1482 22.9323 30.4343C22.3801 30.8516 21.7355 31.1114 21.0644 31.1985C20.6933 31.2409 20.3294 31.2365 19.9727 31.1821C19.3035 31.0749 18.667 30.7958 18.1287 30.3611C17.711 30.0634 17.4133 29.5985 17.3942 29.0788Z" fill="white"/>
</g>
<rect x="22.8169" y="3" width="15.4839" height="15.4839" rx="7.74196" transform="rotate(0.887143 22.8169 3)" fill="#FF4F4F"/>
<path d="M28.7678 13.0336L28.7784 12.3245C29.365 11.8718 29.8778 11.4546 30.3169 11.0728C30.7617 10.6911 31.1106 10.322 31.3636 9.96561C31.6166 9.60919 31.7459 9.24527 31.7515 8.87387C31.7561 8.56437 31.6725 8.32109 31.5007 8.14403C31.329 7.96133 31.094 7.86775 30.7957 7.86327C30.4525 7.85811 30.1863 7.96387 29.9973 8.18055C29.8084 8.39159 29.7117 8.64624 29.7072 8.94449L28.8378 8.93143C28.8497 8.51509 28.9422 8.16751 29.1152 7.88869C29.2883 7.60986 29.5194 7.39944 29.8086 7.25745C30.1034 7.11553 30.4365 7.04736 30.8079 7.05294C31.41 7.06199 31.8718 7.23215 32.1933 7.56343C32.5149 7.88909 32.6716 8.32203 32.6635 8.86224C32.6583 9.20551 32.5774 9.53637 32.4206 9.85485C32.2696 10.1678 32.0709 10.4659 31.8246 10.7493C31.5783 11.0326 31.3041 11.3015 31.002 11.5559C30.7055 11.8103 30.4063 12.0535 30.1045 12.2854L32.7719 12.3254L32.7603 13.0935L28.7678 13.0336Z" fill="white"/>
<defs>
<clipPath id="clip0_1_22">
<rect width="24" height="24" fill="white" transform="translate(8.87669 8.21591) rotate(0.887143)"/>
</clipPath>
</defs>
</svg>
